<svg xmlns="http://www.w3.org/2000/svg" viewBox="0 0 880 225" width="880" height="225" role="img" aria-label="2530 contributions in the last year">
<style>.m{font-family:ui-monospace,SFMono-Regular,SF Mono,Menlo,Consolas,Liberation Mono,monospace}</style>
<rect x="0.5" y="0.5" width="879" height="224" rx="14" fill="#11161F" stroke="#242C3A"/>
<text class="m" x="40" y="38" font-size="10.5" letter-spacing="1.6" fill="#D8A657">LAST 12 MONTHS</text>
<text class="m" x="840" y="38" font-size="10.5" letter-spacing="1.6" text-anchor="end" fill="#E6EDF3">2,530 CONTRIBUTIONS</text>
<text class="m" x="70" y="69" font-size="9" fill="#7D8590">Sep</text>
<text class="m" x="126" y="69" font-size="9" fill="#7D8590">Oct</text>
<text class="m" x="182" y="69" font-size="9" fill="#7D8590">Nov</text>
<text class="m" x="252" y="69" font-size="9" fill="#7D8590">Dec</text>
<text class="m" x="308" y="69" font-size="9" fill="#7D8590">Jan</text>
<text class="m" x="364" y="69" font-size="9" fill="#7D8590">Feb</text>
<text class="m" x="420" y="69" font-size="9" fill="#7D8590">Mar</text>
<text class="m" x="490" y="69" font-size="9" fill="#7D8590">Apr</text>
<text class="m" x="546" y="69" font-size="9" fill="#7D8590">May</text>
<text class="m" x="616" y="69" font-size="9" fill="#7D8590">Jun</text>
<text class="m" x="672" y="69" font-size="9" fill="#7D8590">Jul</text>
<text class="m" x="728" y="69" font-size="9" fill="#7D8590">Aug</text>
<text class="m" x="61" y="100.5" font-size="9" text-anchor="end" fill="#7D8590">Mon</text>
<text class="m" x="61" y="128.5" font-size="9" text-anchor="end" fill="#7D8590">Wed</text>
<text class="m" x="61" y="156.5" font-size="9" text-anchor="end" fill="#7D8590">Fri</text>
<rect x="70" y="78" width="11" height="11" rx="2" fill="#4A3A1E"/>
<rect x="70" y="92" width="11" height="11" rx="2" fill="#4A3A1E"/>
<rect x="70" y="106" width="11" height="11" rx="2" fill="#1A202B"/>
<rect x="70" y="120" width="11" height="11" rx="2" fill="#1A202B"/>
<rect x="70" y="134" width="11" height="11" rx="2" fill="#1A202B"/>
<rect x="70" y="148" width="11" height="11" rx="2" fill="#1A202B"/>
<rect x="70" y="162" width="11" height="11" rx="2" fill="#1A202B"/>
<rect x="84" y="78" width="11" height="11" rx="2" fill="#8A6B2E"/>
<rect x="84" y="92" width="11" height="11" rx="2" fill="#1A202B"/>
<rect x="84" y="106" width="11" height="11" rx="2" fill="#1A202B"/>
<rect x="84" y="120" width="11" height="11" rx="2" fill="#1A202B"/>
<rect x="84" y="134" width="11" height="11" rx="2" fill="#4A3A1E"/>
<rect x="84" y="148" width="11" height="11" rx="2" fill="#1A202B"/>
<rect x="84" y="162" width="11" height="11" rx="2" fill="#1A202B"/>
<rect x="98" y="78" width="11" height="11" rx="2" fill="#1A202B"/>
<rect x="98" y="92" width="11" height="11" rx="2" fill="#1A202B"/>
<rect x="98" y="106" width="11" height="11" rx="2" fill="#1A202B"/>
<rect x="98" y="120" width="11" height="11" rx="2" fill="#1A202B"/>
<rect x="98" y="134" width="11" height="11" rx="2" fill="#1A202B"/>
<rect x="98" y="148" width="11" height="11" rx="2" fill="#1A202B"/>
<rect x="98" y="162" width="11" height="11" rx="2" fill="#1A202B"/>
<rect x="112" y="78" width="11" height="11" rx="2" fill="#8A6B2E"/>
<rect x="112" y="92" width="11" height="11" rx="2" fill="#C09242"/>
<rect x="112" y="106" width="11" height="11" rx="2" fill="#8A6B2E"/>
<rect x="112" y="120" width="11" height="11" rx="2" fill="#C09242"/>
<rect x="112" y="134" width="11" height="11" rx="2" fill="#1A202B"/>
<rect x="112" y="148" width="11" height="11" rx="2" fill="#1A202B"/>
<rect x="112" y="162" width="11" height="11" rx="2" fill="#1A202B"/>
<rect x="126" y="78" width="11" height="11" rx="2" fill="#C09242"/>
<rect x="126" y="92" width="11" height="11" rx="2" fill="#D8A657"/>
<rect x="126" y="106" width="11" height="11" rx="2" fill="#C09242"/>
<rect x="126" y="120" width="11" height="11" rx="2" fill="#C09242"/>
<rect x="126" y="134" width="11" height="11" rx="2" fill="#1A202B"/>
<rect x="126" y="148" width="11" height="11" rx="2" fill="#1A202B"/>
<rect x="126" y="162" width="11" height="11" rx="2" fill="#1A202B"/>
<rect x="140" y="78" width="11" height="11" rx="2" fill="#1A202B"/>
<rect x="140" y="92" width="11" height="11" rx="2" fill="#1A202B"/>
<rect x="140" y="106" width="11" height="11" rx="2" fill="#1A202B"/>
<rect x="140" y="120" width="11" height="11" rx="2" fill="#1A202B"/>
<rect x="140" y="134" width="11" height="11" rx="2" fill="#1A202B"/>
<rect x="140" y="148" width="11" height="11" rx="2" fill="#1A202B"/>
<rect x="140" y="162" width="11" height="11" rx="2" fill="#1A202B"/>
<rect x="154" y="78" width="11" height="11" rx="2" fill="#1A202B"/>
<rect x="154" y="92" width="11" height="11" rx="2" fill="#1A202B"/>
<rect x="154" y="106" width="11" height="11" rx="2" fill="#1A202B"/>
<rect x="154" y="120" width="11" height="11" rx="2" fill="#1A202B"/>
<rect x="154" y="134" width="11" height="11" rx="2" fill="#1A202B"/>
<rect x="154" y="148" width="11" height="11" rx="2" fill="#1A202B"/>
<rect x="154" y="162" width="11" height="11" rx="2" fill="#1A202B"/>
<rect x="168" y="78" width="11" height="11" rx="2" fill="#1A202B"/>
<rect x="168" y="92" width="11" height="11" rx="2" fill="#1A202B"/>
<rect x="168" y="106" width="11" height="11" rx="2" fill="#1A202B"/>
<rect x="168" y="120" width="11" height="11" rx="2" fill="#8A6B2E"/>
<rect x="168" y="134" width="11" height="11" rx="2" fill="#1A202B"/>
<rect x="168" y="148" width="11" height="11" rx="2" fill="#1A202B"/>
<rect x="168" y="162" width="11" height="11" rx="2" fill="#1A202B"/>
<rect x="182" y="78" width="11" height="11" rx="2" fill="#1A202B"/>
<rect x="182" y="92" width="11" height="11" rx="2" fill="#1A202B"/>
<rect x="182" y="106" width="11" height="11" rx="2" fill="#1A202B"/>
<rect x="182" y="120" width="11" height="11" rx="2" fill="#1A202B"/>
<rect x="182" y="134" width="11" height="11" rx="2" fill="#1A202B"/>
<rect x="182" y="148" width="11" height="11" rx="2" fill="#1A202B"/>
<rect x="182" y="162" width="11" height="11" rx="2" fill="#1A202B"/>
<rect x="196" y="78" width="11" height="11" rx="2" fill="#1A202B"/>
<rect x="196" y="92" width="11" height="11" rx="2" fill="#C09242"/>
<rect x="196" y="106" width="11" height="11" rx="2" fill="#1A202B"/>
<rect x="196" y="120" width="11" height="11" rx="2" fill="#1A202B"/>
<rect x="196" y="134" width="11" height="11" rx="2" fill="#1A202B"/>
<rect x="196" y="148" width="11" height="11" rx="2" fill="#1A202B"/>
<rect x="196" y="162" width="11" height="11" rx="2" fill="#1A202B"/>
<rect x="210" y="78" width="11" height="11" rx="2" fill="#1A202B"/>
<rect x="210" y="92" width="11" height="11" rx="2" fill="#1A202B"/>
<rect x="210" y="106" width="11" height="11" rx="2" fill="#1A202B"/>
<rect x="210" y="120" width="11" height="11" rx="2" fill="#D8A657"/>
<rect x="210" y="134" width="11" height="11" rx="2" fill="#1A202B"/>
<rect x="210" y="148" width="11" height="11" rx="2" fill="#1A202B"/>
<rect x="210" y="162" width="11" height="11" rx="2" fill="#C09242"/>
<rect x="224" y="78" width="11" height="11" rx="2" fill="#C09242"/>
<rect x="224" y="92" width="11" height="11" rx="2" fill="#C09242"/>
<rect x="224" y="106" width="11" height="11" rx="2" fill="#1A202B"/>
<rect x="224" y="120" width="11" height="11" rx="2" fill="#1A202B"/>
<rect x="224" y="134" width="11" height="11" rx="2" fill="#1A202B"/>
<rect x="224" y="148" width="11" height="11" rx="2" fill="#1A202B"/>
<rect x="224" y="162" width="11" height="11" rx="2" fill="#1A202B"/>
<rect x="238" y="78" width="11" height="11" rx="2" fill="#D8A657"/>
<rect x="238" y="92" width="11" height="11" rx="2" fill="#1A202B"/>
<rect x="238" y="106" width="11" height="11" rx="2" fill="#1A202B"/>
<rect x="238" y="120" width="11" height="11" rx="2" fill="#C09242"/>
<rect x="238" y="134" width="11" height="11" rx="2" fill="#8A6B2E"/>
<rect x="238" y="148" width="11" height="11" rx="2" fill="#1A202B"/>
<rect x="238" y="162" width="11" height="11" rx="2" fill="#1A202B"/>
<rect x="252" y="78" width="11" height="11" rx="2" fill="#C09242"/>
<rect x="252" y="92" width="11" height="11" rx="2" fill="#4A3A1E"/>
<rect x="252" y="106" width="11" height="11" rx="2" fill="#D8A657"/>
<rect x="252" y="120" width="11" height="11" rx="2" fill="#1A202B"/>
<rect x="252" y="134" width="11" height="11" rx="2" fill="#1A202B"/>
<rect x="252" y="148" width="11" height="11" rx="2" fill="#1A202B"/>
<rect x="252" y="162" width="11" height="11" rx="2" fill="#4A3A1E"/>
<rect x="266" y="78" width="11" height="11" rx="2" fill="#D8A657"/>
<rect x="266" y="92" width="11" height="11" rx="2" fill="#1A202B"/>
<rect x="266" y="106" width="11" height="11" rx="2" fill="#1A202B"/>
<rect x="266" y="120" width="11" height="11" rx="2" fill="#D8A657"/>
<rect x="266" y="134" width="11" height="11" rx="2" fill="#1A202B"/>
<rect x="266" y="148" width="11" height="11" rx="2" fill="#1A202B"/>
<rect x="266" y="162" width="11" height="11" rx="2" fill="#4A3A1E"/>
<rect x="280" y="78" width="11" height="11" rx="2" fill="#8A6B2E"/>
<rect x="280" y="92" width="11" height="11" rx="2" fill="#1A202B"/>
<rect x="280" y="106" width="11" height="11" rx="2" fill="#1A202B"/>
<rect x="280" y="120" width="11" height="11" rx="2" fill="#8A6B2E"/>
<rect x="280" y="134" width="11" height="11" rx="2" fill="#1A202B"/>
<rect x="280" y="148" width="11" height="11" rx="2" fill="#1A202B"/>
<rect x="280" y="162" width="11" height="11" rx="2" fill="#D8A657"/>
<rect x="294" y="78" width="11" height="11" rx="2" fill="#D8A657"/>
<rect x="294" y="92" width="11" height="11" rx="2" fill="#1A202B"/>
<rect x="294" y="106" width="11" height="11" rx="2" fill="#1A202B"/>
<rect x="294" y="120" width="11" height="11" rx="2" fill="#1A202B"/>
<rect x="294" y="134" width="11" height="11" rx="2" fill="#1A202B"/>
<rect x="294" y="148" width="11" height="11" rx="2" fill="#1A202B"/>
<rect x="294" y="162" width="11" height="11" rx="2" fill="#1A202B"/>
<rect x="308" y="78" width="11" height="11" rx="2" fill="#1A202B"/>
<rect x="308" y="92" width="11" height="11" rx="2" fill="#C09242"/>
<rect x="308" y="106" width="11" height="11" rx="2" fill="#1A202B"/>
<rect x="308" y="120" width="11" height="11" rx="2" fill="#1A202B"/>
<rect x="308" y="134" width="11" height="11" rx="2" fill="#D8A657"/>
<rect x="308" y="148" width="11" height="11" rx="2" fill="#1A202B"/>
<rect x="308" y="162" width="11" height="11" rx="2" fill="#D8A657"/>
<rect x="322" y="78" width="11" height="11" rx="2" fill="#D8A657"/>
<rect x="322" y="92" width="11" height="11" rx="2" fill="#1A202B"/>
<rect x="322" y="106" width="11" height="11" rx="2" fill="#D8A657"/>
<rect x="322" y="120" width="11" height="11" rx="2" fill="#4A3A1E"/>
<rect x="322" y="134" width="11" height="11" rx="2" fill="#1A202B"/>
<rect x="322" y="148" width="11" height="11" rx="2" fill="#1A202B"/>
<rect x="322" y="162" width="11" height="11" rx="2" fill="#1A202B"/>
<rect x="336" y="78" width="11" height="11" rx="2" fill="#1A202B"/>
<rect x="336" y="92" width="11" height="11" rx="2" fill="#1A202B"/>
<rect x="336" y="106" width="11" height="11" rx="2" fill="#1A202B"/>
<rect x="336" y="120" width="11" height="11" rx="2" fill="#8A6B2E"/>
<rect x="336" y="134" width="11" height="11" rx="2" fill="#D8A657"/>
<rect x="336" y="148" width="11" height="11" rx="2" fill="#1A202B"/>
<rect x="336" y="162" width="11" height="11" rx="2" fill="#D8A657"/>
<rect x="350" y="78" width="11" height="11" rx="2" fill="#D8A657"/>
<rect x="350" y="92" width="11" height="11" rx="2" fill="#8A6B2E"/>
<rect x="350" y="106" width="11" height="11" rx="2" fill="#1A202B"/>
<rect x="350" y="120" width="11" height="11" rx="2" fill="#1A202B"/>
<rect x="350" y="134" width="11" height="11" rx="2" fill="#1A202B"/>
<rect x="350" y="148" width="11" height="11" rx="2" fill="#1A202B"/>
<rect x="350" y="162" width="11" height="11" rx="2" fill="#1A202B"/>
<rect x="364" y="78" width="11" height="11" rx="2" fill="#D8A657"/>
<rect x="364" y="92" width="11" height="11" rx="2" fill="#D8A657"/>
<rect x="364" y="106" width="11" height="11" rx="2" fill="#C09242"/>
<rect x="364" y="120" width="11" height="11" rx="2" fill="#C09242"/>
<rect x="364" y="134" width="11" height="11" rx="2" fill="#D8A657"/>
<rect x="364" y="148" width="11" height="11" rx="2" fill="#D8A657"/>
<rect x="364" y="162" width="11" height="11" rx="2" fill="#1A202B"/>
<rect x="378" y="78" width="11" height="11" rx="2" fill="#D8A657"/>
<rect x="378" y="92" width="11" height="11" rx="2" fill="#D8A657"/>
<rect x="378" y="106" width="11" height="11" rx="2" fill="#C09242"/>
<rect x="378" y="120" width="11" height="11" rx="2" fill="#D8A657"/>
<rect x="378" y="134" width="11" height="11" rx="2" fill="#D8A657"/>
<rect x="378" y="148" width="11" height="11" rx="2" fill="#D8A657"/>
<rect x="378" y="162" width="11" height="11" rx="2" fill="#D8A657"/>
<rect x="392" y="78" width="11" height="11" rx="2" fill="#D8A657"/>
<rect x="392" y="92" width="11" height="11" rx="2" fill="#C09242"/>
<rect x="392" y="106" width="11" height="11" rx="2" fill="#4A3A1E"/>
<rect x="392" y="120" width="11" height="11" rx="2" fill="#1A202B"/>
<rect x="392" y="134" width="11" height="11" rx="2" fill="#1A202B"/>
<rect x="392" y="148" width="11" height="11" rx="2" fill="#1A202B"/>
<rect x="392" y="162" width="11" height="11" rx="2" fill="#1A202B"/>
<rect x="406" y="78" width="11" height="11" rx="2" fill="#8A6B2E"/>
<rect x="406" y="92" width="11" height="11" rx="2" fill="#D8A657"/>
<rect x="406" y="106" width="11" height="11" rx="2" fill="#1A202B"/>
<rect x="406" y="120" width="11" height="11" rx="2" fill="#C09242"/>
<rect x="406" y="134" width="11" height="11" rx="2" fill="#1A202B"/>
<rect x="406" y="148" width="11" height="11" rx="2" fill="#1A202B"/>
<rect x="406" y="162" width="11" height="11" rx="2" fill="#1A202B"/>
<rect x="420" y="78" width="11" height="11" rx="2" fill="#D8A657"/>
<rect x="420" y="92" width="11" height="11" rx="2" fill="#C09242"/>
<rect x="420" y="106" width="11" height="11" rx="2" fill="#1A202B"/>
<rect x="420" y="120" width="11" height="11" rx="2" fill="#4A3A1E"/>
<rect x="420" y="134" width="11" height="11" rx="2" fill="#8A6B2E"/>
<rect x="420" y="148" width="11" height="11" rx="2" fill="#1A202B"/>
<rect x="420" y="162" width="11" height="11" rx="2" fill="#1A202B"/>
<rect x="434" y="78" width="11" height="11" rx="2" fill="#1A202B"/>
<rect x="434" y="92" width="11" height="11" rx="2" fill="#D8A657"/>
<rect x="434" y="106" width="11" height="11" rx="2" fill="#D8A657"/>
<rect x="434" y="120" width="11" height="11" rx="2" fill="#D8A657"/>
<rect x="434" y="134" width="11" height="11" rx="2" fill="#D8A657"/>
<rect x="434" y="148" width="11" height="11" rx="2" fill="#1A202B"/>
<rect x="434" y="162" width="11" height="11" rx="2" fill="#1A202B"/>
<rect x="448" y="78" width="11" height="11" rx="2" fill="#1A202B"/>
<rect x="448" y="92" width="11" height="11" rx="2" fill="#1A202B"/>
<rect x="448" y="106" width="11" height="11" rx="2" fill="#1A202B"/>
<rect x="448" y="120" width="11" height="11" rx="2" fill="#1A202B"/>
<rect x="448" y="134" width="11" height="11" rx="2" fill="#1A202B"/>
<rect x="448" y="148" width="11" height="11" rx="2" fill="#1A202B"/>
<rect x="448" y="162" width="11" height="11" rx="2" fill="#1A202B"/>
<rect x="462" y="78" width="11" height="11" rx="2" fill="#1A202B"/>
<rect x="462" y="92" width="11" height="11" rx="2" fill="#8A6B2E"/>
<rect x="462" y="106" width="11" height="11" rx="2" fill="#1A202B"/>
<rect x="462" y="120" width="11" height="11" rx="2" fill="#1A202B"/>
<rect x="462" y="134" width="11" height="11" rx="2" fill="#8A6B2E"/>
<rect x="462" y="148" width="11" height="11" rx="2" fill="#D8A657"/>
<rect x="462" y="162" width="11" height="11" rx="2" fill="#1A202B"/>
<rect x="476" y="78" width="11" height="11" rx="2" fill="#D8A657"/>
<rect x="476" y="92" width="11" height="11" rx="2" fill="#1A202B"/>
<rect x="476" y="106" width="11" height="11" rx="2" fill="#4A3A1E"/>
<rect x="476" y="120" width="11" height="11" rx="2" fill="#D8A657"/>
<rect x="476" y="134" width="11" height="11" rx="2" fill="#C09242"/>
<rect x="476" y="148" width="11" height="11" rx="2" fill="#1A202B"/>
<rect x="476" y="162" width="11" height="11" rx="2" fill="#8A6B2E"/>
<rect x="490" y="78" width="11" height="11" rx="2" fill="#D8A657"/>
<rect x="490" y="92" width="11" height="11" rx="2" fill="#1A202B"/>
<rect x="490" y="106" width="11" height="11" rx="2" fill="#1A202B"/>
<rect x="490" y="120" width="11" height="11" rx="2" fill="#1A202B"/>
<rect x="490" y="134" width="11" height="11" rx="2" fill="#4A3A1E"/>
<rect x="490" y="148" width="11" height="11" rx="2" fill="#4A3A1E"/>
<rect x="490" y="162" width="11" height="11" rx="2" fill="#1A202B"/>
<rect x="504" y="78" width="11" height="11" rx="2" fill="#C09242"/>
<rect x="504" y="92" width="11" height="11" rx="2" fill="#1A202B"/>
<rect x="504" y="106" width="11" height="11" rx="2" fill="#1A202B"/>
<rect x="504" y="120" width="11" height="11" rx="2" fill="#1A202B"/>
<rect x="504" y="134" width="11" height="11" rx="2" fill="#1A202B"/>
<rect x="504" y="148" width="11" height="11" rx="2" fill="#4A3A1E"/>
<rect x="504" y="162" width="11" height="11" rx="2" fill="#1A202B"/>
<rect x="518" y="78" width="11" height="11" rx="2" fill="#4A3A1E"/>
<rect x="518" y="92" width="11" height="11" rx="2" fill="#1A202B"/>
<rect x="518" y="106" width="11" height="11" rx="2" fill="#8A6B2E"/>
<rect x="518" y="120" width="11" height="11" rx="2" fill="#D8A657"/>
<rect x="518" y="134" width="11" height="11" rx="2" fill="#1A202B"/>
<rect x="518" y="148" width="11" height="11" rx="2" fill="#1A202B"/>
<rect x="518" y="162" width="11" height="11" rx="2" fill="#1A202B"/>
<rect x="532" y="78" width="11" height="11" rx="2" fill="#4A3A1E"/>
<rect x="532" y="92" width="11" height="11" rx="2" fill="#C09242"/>
<rect x="532" y="106" width="11" height="11" rx="2" fill="#1A202B"/>
<rect x="532" y="120" width="11" height="11" rx="2" fill="#1A202B"/>
<rect x="532" y="134" width="11" height="11" rx="2" fill="#4A3A1E"/>
<rect x="532" y="148" width="11" height="11" rx="2" fill="#1A202B"/>
<rect x="532" y="162" width="11" height="11" rx="2" fill="#1A202B"/>
<rect x="546" y="78" width="11" height="11" rx="2" fill="#D8A657"/>
<rect x="546" y="92" width="11" height="11" rx="2" fill="#8A6B2E"/>
<rect x="546" y="106" width="11" height="11" rx="2" fill="#D8A657"/>
<rect x="546" y="120" width="11" height="11" rx="2" fill="#8A6B2E"/>
<rect x="546" y="134" width="11" height="11" rx="2" fill="#C09242"/>
<rect x="546" y="148" width="11" height="11" rx="2" fill="#D8A657"/>
<rect x="546" y="162" width="11" height="11" rx="2" fill="#C09242"/>
<rect x="560" y="78" width="11" height="11" rx="2" fill="#C09242"/>
<rect x="560" y="92" width="11" height="11" rx="2" fill="#4A3A1E"/>
<rect x="560" y="106" width="11" height="11" rx="2" fill="#1A202B"/>
<rect x="560" y="120" width="11" height="11" rx="2" fill="#1A202B"/>
<rect x="560" y="134" width="11" height="11" rx="2" fill="#1A202B"/>
<rect x="560" y="148" width="11" height="11" rx="2" fill="#1A202B"/>
<rect x="560" y="162" width="11" height="11" rx="2" fill="#1A202B"/>
<rect x="574" y="78" width="11" height="11" rx="2" fill="#8A6B2E"/>
<rect x="574" y="92" width="11" height="11" rx="2" fill="#4A3A1E"/>
<rect x="574" y="106" width="11" height="11" rx="2" fill="#4A3A1E"/>
<rect x="574" y="120" width="11" height="11" rx="2" fill="#C09242"/>
<rect x="574" y="134" width="11" height="11" rx="2" fill="#4A3A1E"/>
<rect x="574" y="148" width="11" height="11" rx="2" fill="#C09242"/>
<rect x="574" y="162" width="11" height="11" rx="2" fill="#C09242"/>
<rect x="588" y="78" width="11" height="11" rx="2" fill="#1A202B"/>
<rect x="588" y="92" width="11" height="11" rx="2" fill="#1A202B"/>
<rect x="588" y="106" width="11" height="11" rx="2" fill="#1A202B"/>
<rect x="588" y="120" width="11" height="11" rx="2" fill="#1A202B"/>
<rect x="588" y="134" width="11" height="11" rx="2" fill="#1A202B"/>
<rect x="588" y="148" width="11" height="11" rx="2" fill="#1A202B"/>
<rect x="588" y="162" width="11" height="11" rx="2" fill="#1A202B"/>
<rect x="602" y="78" width="11" height="11" rx="2" fill="#1A202B"/>
<rect x="602" y="92" width="11" height="11" rx="2" fill="#1A202B"/>
<rect x="602" y="106" width="11" height="11" rx="2" fill="#1A202B"/>
<rect x="602" y="120" width="11" height="11" rx="2" fill="#4A3A1E"/>
<rect x="602" y="134" width="11" height="11" rx="2" fill="#4A3A1E"/>
<rect x="602" y="148" width="11" height="11" rx="2" fill="#4A3A1E"/>
<rect x="602" y="162" width="11" height="11" rx="2" fill="#1A202B"/>
<rect x="616" y="78" width="11" height="11" rx="2" fill="#4A3A1E"/>
<rect x="616" y="92" width="11" height="11" rx="2" fill="#4A3A1E"/>
<rect x="616" y="106" width="11" height="11" rx="2" fill="#4A3A1E"/>
<rect x="616" y="120" width="11" height="11" rx="2" fill="#4A3A1E"/>
<rect x="616" y="134" width="11" height="11" rx="2" fill="#1A202B"/>
<rect x="616" y="148" width="11" height="11" rx="2" fill="#1A202B"/>
<rect x="616" y="162" width="11" height="11" rx="2" fill="#1A202B"/>
<rect x="630" y="78" width="11" height="11" rx="2" fill="#4A3A1E"/>
<rect x="630" y="92" width="11" height="11" rx="2" fill="#1A202B"/>
<rect x="630" y="106" width="11" height="11" rx="2" fill="#1A202B"/>
<rect x="630" y="120" width="11" height="11" rx="2" fill="#4A3A1E"/>
<rect x="630" y="134" width="11" height="11" rx="2" fill="#8A6B2E"/>
<rect x="630" y="148" width="11" height="11" rx="2" fill="#8A6B2E"/>
<rect x="630" y="162" width="11" height="11" rx="2" fill="#C09242"/>
<rect x="644" y="78" width="11" height="11" rx="2" fill="#8A6B2E"/>
<rect x="644" y="92" width="11" height="11" rx="2" fill="#8A6B2E"/>
<rect x="644" y="106" width="11" height="11" rx="2" fill="#4A3A1E"/>
<rect x="644" y="120" width="11" height="11" rx="2" fill="#4A3A1E"/>
<rect x="644" y="134" width="11" height="11" rx="2" fill="#1A202B"/>
<rect x="644" y="148" width="11" height="11" rx="2" fill="#1A202B"/>
<rect x="644" y="162" width="11" height="11" rx="2" fill="#1A202B"/>
<rect x="658" y="78" width="11" height="11" rx="2" fill="#4A3A1E"/>
<rect x="658" y="92" width="11" height="11" rx="2" fill="#1A202B"/>
<rect x="658" y="106" width="11" height="11" rx="2" fill="#1A202B"/>
<rect x="658" y="120" width="11" height="11" rx="2" fill="#C09242"/>
<rect x="658" y="134" width="11" height="11" rx="2" fill="#8A6B2E"/>
<rect x="658" y="148" width="11" height="11" rx="2" fill="#1A202B"/>
<rect x="658" y="162" width="11" height="11" rx="2" fill="#1A202B"/>
<rect x="672" y="78" width="11" height="11" rx="2" fill="#C09242"/>
<rect x="672" y="92" width="11" height="11" rx="2" fill="#C09242"/>
<rect x="672" y="106" width="11" height="11" rx="2" fill="#1A202B"/>
<rect x="672" y="120" width="11" height="11" rx="2" fill="#8A6B2E"/>
<rect x="672" y="134" width="11" height="11" rx="2" fill="#1A202B"/>
<rect x="672" y="148" width="11" height="11" rx="2" fill="#1A202B"/>
<rect x="672" y="162" width="11" height="11" rx="2" fill="#1A202B"/>
<rect x="686" y="78" width="11" height="11" rx="2" fill="#1A202B"/>
<rect x="686" y="92" width="11" height="11" rx="2" fill="#8A6B2E"/>
<rect x="686" y="106" width="11" height="11" rx="2" fill="#1A202B"/>
<rect x="686" y="120" width="11" height="11" rx="2" fill="#1A202B"/>
<rect x="686" y="134" width="11" height="11" rx="2" fill="#C09242"/>
<rect x="686" y="148" width="11" height="11" rx="2" fill="#1A202B"/>
<rect x="686" y="162" width="11" height="11" rx="2" fill="#4A3A1E"/>
<rect x="700" y="78" width="11" height="11" rx="2" fill="#C09242"/>
<rect x="700" y="92" width="11" height="11" rx="2" fill="#1A202B"/>
<rect x="700" y="106" width="11" height="11" rx="2" fill="#C09242"/>
<rect x="700" y="120" width="11" height="11" rx="2" fill="#8A6B2E"/>
<rect x="700" y="134" width="11" height="11" rx="2" fill="#8A6B2E"/>
<rect x="700" y="148" width="11" height="11" rx="2" fill="#1A202B"/>
<rect x="700" y="162" width="11" height="11" rx="2" fill="#4A3A1E"/>
<rect x="714" y="78" width="11" height="11" rx="2" fill="#8A6B2E"/>
<rect x="714" y="92" width="11" height="11" rx="2" fill="#8A6B2E"/>
<rect x="714" y="106" width="11" height="11" rx="2" fill="#1A202B"/>
<rect x="714" y="120" width="11" height="11" rx="2" fill="#4A3A1E"/>
<rect x="714" y="134" width="11" height="11" rx="2" fill="#1A202B"/>
<rect x="714" y="148" width="11" height="11" rx="2" fill="#1A202B"/>
<rect x="714" y="162" width="11" height="11" rx="2" fill="#1A202B"/>
<rect x="728" y="78" width="11" height="11" rx="2" fill="#1A202B"/>
<rect x="728" y="92" width="11" height="11" rx="2" fill="#1A202B"/>
<rect x="728" y="106" width="11" height="11" rx="2" fill="#1A202B"/>
<rect x="728" y="120" width="11" height="11" rx="2" fill="#4A3A1E"/>
<rect x="728" y="134" width="11" height="11" rx="2" fill="#1A202B"/>
<rect x="728" y="148" width="11" height="11" rx="2" fill="#8A6B2E"/>
<rect x="728" y="162" width="11" height="11" rx="2" fill="#1A202B"/>
<rect x="742" y="78" width="11" height="11" rx="2" fill="#8A6B2E"/>
<rect x="742" y="92" width="11" height="11" rx="2" fill="#C09242"/>
<rect x="742" y="106" width="11" height="11" rx="2" fill="#1A202B"/>
<rect x="742" y="120" width="11" height="11" rx="2" fill="#1A202B"/>
<rect x="742" y="134" width="11" height="11" rx="2" fill="#4A3A1E"/>
<rect x="742" y="148" width="11" height="11" rx="2" fill="#4A3A1E"/>
<rect x="742" y="162" width="11" height="11" rx="2" fill="#4A3A1E"/>
<rect x="756" y="78" width="11" height="11" rx="2" fill="#4A3A1E"/>
<rect x="756" y="92" width="11" height="11" rx="2" fill="#8A6B2E"/>
<rect x="756" y="106" width="11" height="11" rx="2" fill="#4A3A1E"/>
<rect x="756" y="120" width="11" height="11" rx="2" fill="#8A6B2E"/>
<rect x="756" y="134" width="11" height="11" rx="2" fill="#4A3A1E"/>
<rect x="756" y="148" width="11" height="11" rx="2" fill="#1A202B"/>
<rect x="756" y="162" width="11" height="11" rx="2" fill="#1A202B"/>
<rect x="770" y="78" width="11" height="11" rx="2" fill="#C09242"/>
<rect x="770" y="92" width="11" height="11" rx="2" fill="#4A3A1E"/>
<rect x="770" y="106" width="11" height="11" rx="2" fill="#8A6B2E"/>
<rect x="770" y="120" width="11" height="11" rx="2" fill="#8A6B2E"/>
<rect x="770" y="134" width="11" height="11" rx="2" fill="#1A202B"/>
<rect x="770" y="148" width="11" height="11" rx="2" fill="#1A202B"/>
<rect x="770" y="162" width="11" height="11" rx="2" fill="#1A202B"/>
<rect x="784" y="78" width="11" height="11" rx="2" fill="#4A3A1E"/>
<rect x="784" y="92" width="11" height="11" rx="2" fill="#C09242"/>
<rect x="784" y="106" width="11" height="11" rx="2" fill="#8A6B2E"/>
<rect x="784" y="120" width="11" height="11" rx="2" fill="#4A3A1E"/>
<rect x="784" y="134" width="11" height="11" rx="2" fill="#1A202B"/>
<rect x="784" y="148" width="11" height="11" rx="2" fill="#1A202B"/>
<rect x="784" y="162" width="11" height="11" rx="2" fill="#1A202B"/>
<rect x="798" y="78" width="11" height="11" rx="2" fill="#4A3A1E"/>
<rect x="798" y="92" width="11" height="11" rx="2" fill="#1A202B"/>
<rect x="798" y="106" width="11" height="11" rx="2" fill="#8A6B2E"/>
<rect x="798" y="120" width="11" height="11" rx="2" fill="#1A202B"/>
<rect x="798" y="134" width="11" height="11" rx="2" fill="#1A202B"/>
<rect x="798" y="148" width="11" height="11" rx="2" fill="#C09242"/>
<rect x="798" y="162" width="11" height="11" rx="2" fill="#8A6B2E"/>
<text class="m" x="40" y="211" font-size="9" fill="#7D8590">LESS</text>
<rect x="76" y="203" width="11" height="11" rx="2" fill="#1A202B"/>
<rect x="90" y="203" width="11" height="11" rx="2" fill="#4A3A1E"/>
<rect x="104" y="203" width="11" height="11" rx="2" fill="#8A6B2E"/>
<rect x="118" y="203" width="11" height="11" rx="2" fill="#C09242"/>
<rect x="132" y="203" width="11" height="11" rx="2" fill="#D8A657"/>
<text class="m" x="150" y="211" font-size="9" fill="#7D8590">MORE</text>
<text class="m" x="840" y="211" font-size="9.5" letter-spacing="1.2" text-anchor="end" fill="#7D8590">ACTIVE DAYS <tspan fill="#E6EDF3">162</tspan>  &#183;  BUSIEST DAY <tspan fill="#E6EDF3">146</tspan></text>
</svg>